<svg width="25" height="25" viewBox="0 0 25 25" fill="none" xmlns="http://www.w3.org/2000/svg">
<path fill-rule="evenodd" clip-rule="evenodd" d="M8.58325 4.25L19.8333 4.25C20.0322 4.25 20.2229 4.32902 20.3636 4.46967C20.5042 4.61032 20.5833 4.80109 20.5833 5V16.25C20.5833 16.6642 20.2475 17 19.8333 17C19.419 17 19.0833 16.6642 19.0833 16.25V6.81066L5.36358 20.5303C5.07069 20.8232 4.59582 20.8232 4.30292 20.5303C4.01003 20.2374 4.01003 19.7626 4.30292 19.4697L18.0226 5.75L8.58325 5.75C8.16904 5.75 7.83325 5.41421 7.83325 5C7.83325 4.58579 8.16904 4.25 8.58325 4.25Z" fill="#141414"/>
</svg>
